P1
# CREATOR: GIMP PNM Filter Version 1.1
16 16
1111111111111111100000000000111110000000000011111000000000001111100000
0000001111100000000000111110000000000000011000000000000001100000000000
0001100000000000000111111100000000011111110000000001111111000000000111
1111000000000111111100000000011111111111111111